<?xml version="1.0" standalone="no"?><!DOCTYPE svg PUBLIC "-//W3C//DTD SVG 1.1//EN" "http://www.w3.org/Graphics/SVG/1.1/DTD/svg11.dtd"><svg class="icon" width="200px" height="195.98px" viewBox="0 0 1045 1024" version="1.1" xmlns="http://www.w3.org/2000/svg"><path fill="#ffffff" d="M159.864979 682.459274C159.864979 746.072574 190.5893 777.721519 250.867038 777.721519h492.371173c51.874025 0 82.010734-31.955713 82.010734-95.262245v-102.20989a144.937046 144.937046 0 0 1-23.189063 1.844928c-8.114228 0-15.640844-0.617857-23.474228-1.533839v99.751426c0 31.657586-16.224135 47.942211-44.913418 47.942211H251.735494c-28.983089 0-45.207224-16.288945-45.207224-48.244659V426.49384h349.801857c-5.223696-14.750785-8.693198-30.421873-9.85114-46.404051H206.519629v-77.426498c0-30.426194 15.36-45.794835 42.887021-45.794835H314.329114c19.123308 0 30.72 4.92557 45.496709 18.440641l17.675882 15.36c18.838143 16.595713 34.198143 22.744034 62.887426 22.744034h122.521384a187.387679 187.387679 0 0 1 17.390717-49.476051h-127.732118c-19.702278 0-31.584135-5.228017-46.08-18.125232l-17.671561-15.671089C369.676962 213.233958 354.900253 207.392405 326.21097 207.392405H239.853637C189.137553 207.392405 159.864979 238.121046 159.864979 300.196186v382.263088z"  /><path fill="#ffffff" d="M712.911392 424.212523l5.107038 3.534312 3.534313-5.107038-5.107038-3.534312-3.534313 5.107038M780.512675 337.012658L721.552743 419.243747l5.850194 4.182413L786.362869 340.728439l-5.850194-3.715781M747.476793 211.71308c-97.703426 0-177.147679 79.444253-177.147679 177.147679s79.444253 177.147679 177.147679 177.14768 177.147679-79.444253 177.14768-177.14768-79.444253-177.147679-177.14768-177.147679z m8.300017 52.457317c3.983662-5.392203 11.946667-6.468051 17.632675-2.696102l46.637367 32.361857c5.690329 3.77627 6.826667 11.324489 2.843005 16.721013L818.910515 315.409283 751.797468 269.026835l3.979342-4.856438m-114.381232 232.231966c-3.378768 1.594329-6.757536-1.062886-6.195848-4.255865 0.561688-3.188658 5.068152-41.46984 6.757536-60.078987L699.949367 472.474464c-17.455527 6.91308-54.613333 22.329249-58.553789 23.927899zM639.459916 421.784304L748.73843 276.523207 816.607595 325.692489 707.32908 470.953586 639.459916 421.784304M859.814346 505.518987h-142.582278v-12.962025h142.582278v12.962025m-8.64135-51.848101h-108.016878v-12.962025h108.016878v12.962025"  /></svg>