<?xml version="1.0" standalone="no"?><!DOCTYPE svg PUBLIC "-//W3C//DTD SVG 1.1//EN" "http://www.w3.org/Graphics/SVG/1.1/DTD/svg11.dtd"><svg class="icon" width="200px" height="200.00px" viewBox="0 0 1024 1024" version="1.1" xmlns="http://www.w3.org/2000/svg"><path fill="#ffffff" d="M506.368 760.832H259.584c-24.576 0.512-48.128-15.872-57.344-38.912-7.68-19.456-5.12-43.008 7.68-59.392 11.776-15.872 30.208-26.112 49.664-26.112h290.816c32.768-50.688 81.92-90.112 138.24-111.104 41.984-15.872 88.576-19.968 133.12-15.36V263.68h-137.216c-15.872 0-31.744-1.024-46.08-7.68-42.496-19.456-64.512-67.584-66.048-112.64v-128.512H185.856c-26.112 2.048-49.152 17.408-67.584 34.816-26.624 26.112-45.568 62.464-44.032 100.864v668.672c-0.512 19.456 5.632 38.912 16.384 55.296 16.384 26.624 40.96 48.128 68.608 62.464 13.824 7.168 29.184 11.776 45.056 11.776h350.72c-38.4-54.272-54.272-121.856-48.64-187.904zM202.752 425.984c8.192-19.968 26.624-34.816 47.616-37.888 5.632-0.512 10.752-0.512 16.384-1.024h369.152c35.84 0 66.56 35.328 59.904 71.168-4.096 29.184-31.232 53.76-60.928 53.248H260.608c-18.944 0.512-37.376-9.216-49.152-24.064-13.824-16.896-16.384-41.472-8.704-61.44z"  /><path fill="#ffffff" d="M674.816 199.68h146.944c1.536-16.896-2.048-34.816-12.8-48.64-28.16-36.864-64-65.536-98.816-95.744-19.968-15.872-39.424-35.84-65.536-40.448H634.88V137.216c1.024 18.432 7.168 37.376 19.456 51.712 4.608 6.144 12.288 10.752 20.48 10.752zM983.552 686.592c-26.112-48.64-71.168-88.064-124.416-103.936-21.504-7.68-44.544-10.752-67.584-11.264-7.168 1.024-14.336 0.512-21.504 1.024-2.56 1.024-5.12 0.512-8.192 0.512-11.264 2.048-22.528 4.096-33.792 7.168-67.584 18.944-124.416 73.216-145.408 140.8-17.92 53.76-13.824 113.664 10.24 164.864 22.528 47.104 62.976 86.016 111.616 105.984 54.272 23.04 117.248 22.528 171.52 0 57.344-24.064 103.936-73.728 121.856-133.12 18.944-56.32 12.8-119.808-14.336-172.032z m-64 133.632c-33.28 1.024-66.048 0-99.328 0.512-0.512 31.744-0.512 62.976-1.024 94.72 0 15.872-14.336 30.208-30.208 29.696-16.384 1.024-31.744-14.336-31.232-30.72v-92.672c-20.48 0-40.448 0.512-60.928-0.512-2.56 1.536-5.632-1.024-7.68 0.512-9.728-0.512-19.968 0.512-30.208-0.512-22.528-3.584-34.304-34.304-17.92-50.688 8.192-11.264 23.04-11.776 35.328-11.264 3.072 1.024 6.144-0.512 9.216 0.512 23.552-1.536 48.128-1.024 72.192-1.024 1.024-31.744 0-64 0.512-95.744 1.024-18.432 20.48-31.744 38.4-28.16 12.288 4.096 23.04 15.872 23.04 29.696 0.512 31.744 0.512 62.976 1.024 94.72h74.752c9.216 0.512 18.944-1.024 28.16 1.536 11.776 4.608 20.992 16.384 20.48 29.184 0 14.336-10.752 26.624-24.576 30.208z"  /></svg>