<?xml version="1.0" standalone="no"?><!DOCTYPE svg PUBLIC "-//W3C//DTD SVG 1.1//EN" "http://www.w3.org/Graphics/SVG/1.1/DTD/svg11.dtd"><svg class="icon" width="200px" height="200.00px" viewBox="0 0 1024 1024" version="1.1" xmlns="http://www.w3.org/2000/svg"><path fill="#ffffff" d="M589.824 524.288q-30.72 30.72-50.688 68.096t-28.672 77.312-6.144 80.896 16.896 79.872l-388.096 0q-21.504 0-45.056-8.704t-42.496-25.6-31.744-40.96-12.8-54.784l0-438.272q0-62.464 34.304-97.792t94.72-35.328l30.72 0 60.416 0 77.824 0q44.032 0 88.576-0.512t87.552-0.512l76.8 0 56.32 0 25.6 0q23.552 0 47.616 9.216t43.008 24.576 31.232 35.84 12.288 43.008l0 12.288q-54.272 0-125.952 0.512t-144.384 0.512l-140.288 0-110.592 0q-25.6 0-40.448 15.36t-23.04 43.008q-8.192 29.696-18.432 64t-18.432 64l-20.48 69.632q-4.096 14.336 6.656 30.208t31.232 15.872q16.384 0 27.136-9.216t15.872-24.576l54.272-203.776 533.504 1.024q19.456 2.048 38.4 10.24t32.768 23.04 20.48 37.376 1.536 54.272q0 2.048-0.512 3.584t-0.512 4.608q-76.8-24.576-156.672-6.656t-140.288 78.336zM800.768 514.048q46.08 0 86.016 17.408t70.144 47.616 47.616 70.144 17.408 86.016-17.408 86.016-47.616 70.144-70.144 47.616-86.016 17.408-86.016-17.408-70.144-47.616-47.616-70.144-17.408-86.016 17.408-86.016 47.616-70.144 70.144-47.616 86.016-17.408zM929.792 763.904q13.312 0 22.528-9.216t9.216-22.528-9.216-22.528-22.528-9.216l-96.256 0 0-96.256q0-13.312-9.216-22.528t-22.528-9.216q-14.336 0-23.552 9.216t-9.216 22.528l0 96.256-95.232 0q-14.336 0-23.552 9.216t-9.216 22.528 9.216 22.528 23.552 9.216l95.232 0 0 96.256q0 13.312 9.216 22.528t23.552 9.216q13.312 0 22.528-9.216t9.216-22.528l0-96.256 96.256 0z" /></svg>